<svg id="Layer_1" data-name="Layer 1" xmlns="http://www.w3.org/2000/svg" viewBox="0 0 730.43 147.61"><defs><style>.cls-1{fill:#194b14;}.cls-2{fill:#fb329c;}</style></defs><path class="cls-1" d="M0,9.62A7.5,7.5,0,0,1,7.37,2.25H125.09a7.51,7.51,0,0,1,7.37,7.37V38.28c0,3.25-3.28,7.38-7.37,7.38H58.14V58.35H116.9a7.66,7.66,0,0,1,7.37,7.37V94.38c0,3.25-3.28,7.37-7.37,7.37H58.14V138.2c0,3.39-3.28,7.37-7.37,7.37H7.37A7.76,7.76,0,0,1,0,138.2Z"/><path class="cls-1" d="M139.42,9.62a7.5,7.5,0,0,1,7.37-7.37C172.9,2.25,196.65,1,233.6,1c40.56,0,71.25,21.1,71.25,48.32,0,20.36-17.79,37.72-42.66,44.28l38,46.25c2.31,2.81,1.39,5.7-2.69,5.7H236.42c-3.65,0-8.74-3-10.43-6.71L206.68,96.43h-9.93V138.2a7.78,7.78,0,0,1-7.37,7.37H146.79a7.77,7.77,0,0,1-7.37-7.37ZM237.9,58.76a7.18,7.18,0,0,0,7.37-7c0-4-3.67-7.17-8.19-7.17-13.05,0-36.87,1-40.33,1V57.73C199.73,57.73,224.37,58.76,237.9,58.76Z"/><path class="cls-1" d="M312.62,9.62A7.5,7.5,0,0,1,320,2.25H363.4a7.76,7.76,0,0,1,7.37,7.37V138.2a7.5,7.5,0,0,1-7.37,7.37H320a7.71,7.71,0,0,1-7.37-7.37Z"/><path class="cls-2" d="M545.81,82.3c0-3.38-2.19-5.32-5.18-2.53-20.62,19.22-48.46,26.08-72,26.08-26.62,0-30.71-3.69-30.71-7.37,0-5.11,4.5-5.94,12.69-5.94,4.71,0,10.53.2,17.4.2,46.23-1.2,75.35-22.11,75.35-48.52C543.36,11.46,507.94,0,461.87,0,437.1,0,409.6,4.77,398.05,11.51c-3.9,2.28-6.4,5.87-6.4,10.19V46.88c0,3.16,2.82,6.08,6.46,4.24,15.65-7.89,40.63-13.45,65.4-13.45,9.62,0,19.86.89,19.86,7.17,0,6-10.65,6.14-17.81,6.14-29.49,0-87,8.47-87,46.27,0,30.09,41.26,50.36,90.7,50.36,28.06,0,51.55-8.85,70.1-19a11.81,11.81,0,0,0,6.47-10.5Z"/><path class="cls-1" d="M642.39.1c52.83,0,88,30,88,73.71s-35.21,73.7-88,73.7-88-30-88-73.7S589.57.1,642.39.1Zm0,103.6c16.31,0,27.23-12,27.23-29.89s-10.92-29.9-27.23-29.9-27.22,12-27.22,29.9S626.06,103.7,642.39,103.7Z"/></svg>
